<svg width="247" height="247" viewBox="0 0 247 247" fill="none" xmlns="http://www.w3.org/2000/svg">
<rect width="247" height="247" rx="123.5" fill="#111218" style="fill:#111218;fill:color(display-p3 0.0667 0.0706 0.0941);fill-opacity:1;"/>
<path d="M163.73 173.788L188.688 173.788L188.688 172.67C187.756 151.81 174.346 134.489 163.73 124.059L163.171 123.5L163.73 122.941C174.346 112.325 187.756 95.19 188.688 74.33L188.688 73.2125L163.73 73.2125L163.73 49L120.706 49C110.276 49 99.8462 49.3725 91.2787 50.1175C83.0147 50.7998 75.2709 54.4289 69.4589 60.3434C63.647 66.2579 60.1538 74.064 59.6162 82.3388C58.8712 95.5625 58.3125 109.531 58.3125 123.5C58.3125 137.469 58.8712 151.437 59.8025 164.661C60.3401 172.936 63.8332 180.742 69.6452 186.657C75.4572 192.571 83.2009 196.2 91.465 196.883C100.033 197.628 110.462 198 120.892 198L163.73 198L163.73 173.788ZM120.706 173.788C110.835 173.788 101.15 173.415 93.3275 172.67C88.2987 172.111 84.2012 168.014 84.015 162.985C82.1525 136.695 82.1525 110.305 84.015 84.015C84.2012 78.9863 88.2987 74.7025 93.3275 74.33C101.15 73.585 111.021 73.2125 120.706 73.2125L163.73 73.2125C162.985 90.72 144.174 108.228 136.91 113.443L122.941 123.5L136.91 133.558C144.36 138.773 162.985 156.28 163.73 173.788L120.706 173.788Z" fill="#4CD2FA" style="fill:#4CD2FA;fill:color(display-p3 0.2980 0.8235 0.9804);fill-opacity:1;"/>
</svg>
