<svg width="131" height="149" viewBox="0 0 131 149" fill="none" xmlns="http://www.w3.org/2000/svg">
<path d="M105.418 124.788L130.375 124.788L130.375 123.67C129.444 102.81 116.034 85.4888 105.418 75.0588L104.859 74.5L105.418 73.9413C116.034 63.325 129.444 46.19 130.375 25.33L130.375 24.2125L105.417 24.2125L105.417 2.97615e-07L62.3937 8.10668e-07C51.9637 9.35045e-07 41.5337 0.372501 32.9662 1.1175C24.7022 1.79976 16.9584 5.4289 11.1464 11.3434C5.33448 17.2579 1.84134 25.064 1.30374 33.3388C0.558742 46.5625 -2.61603e-06 60.5313 -2.44946e-06 74.5C-2.28288e-06 88.4688 0.558746 102.437 1.49 115.661C2.0276 123.936 5.52074 131.742 11.3327 137.657C17.1447 143.571 24.8884 147.2 33.1525 147.883C41.72 148.628 52.15 149 62.58 149L105.418 149L105.418 124.788ZM62.3938 124.788C52.5225 124.788 42.8375 124.415 35.015 123.67C29.9862 123.111 25.8887 119.014 25.7025 113.985C23.84 87.6946 23.84 61.3054 25.7025 35.015C25.8887 29.9863 29.9862 25.7025 35.015 25.33C42.8375 24.585 52.7087 24.2125 62.3937 24.2125L105.417 24.2125C104.672 41.72 85.8612 59.2275 78.5975 64.4425L64.6287 74.5L78.5975 84.5575C86.0475 89.7725 104.673 107.28 105.418 124.788L62.3938 124.788Z" fill="white" style="fill:white;fill-opacity:1;"/>
</svg>
