<svg width="439" height="720" viewBox="0 0 439 720" fill="none" xmlns="http://www.w3.org/2000/svg">
<g clip-path="url(#clip0_118_19)">
<rect width="439" height="720" fill="url(#paint0_linear_118_19)" style=""/>
<rect y="135" width="491" height="491" rx="245.5" fill="#30ACD1" fill-opacity="0.3" style="fill:#30ACD1;fill:color(display-p3 0.1882 0.6745 0.8196);fill-opacity:0.3;"/>
<path d="M0 567C0 482.5 68.5004 414 153 414V414C237.5 414 306 482.5 306 567V567C306 651.5 237.5 720 153 720H0V567Z" fill="#30ACD1" style="fill:#30ACD1;fill:color(display-p3 0.1882 0.6745 0.8196);fill-opacity:1;"/>
<rect x="236" y="-37" width="255" height="255" rx="127.5" fill="#30ACD1" fill-opacity="0.3" style="fill:#30ACD1;fill:color(display-p3 0.1882 0.6745 0.8196);fill-opacity:0.3;"/>
<path d="M439 360.5C439 418.766 391.766 466 333.5 466V466C275.234 466 228 418.517 228 360.251V360.251C228 301.708 275.458 254 334 254L439 254L439 360.5Z" fill="#7296A0" style="fill:#7296A0;fill:color(display-p3 0.4488 0.5878 0.6292);fill-opacity:1;"/>
<path d="M0 167.449C0 140.691 21.6913 119 48.4488 119L138 119C167.271 119 191 142.729 191 172V172C191 201.271 167.271 225 138 225H0L0 167.449Z" fill="#7296A0" style="fill:#7296A0;fill:color(display-p3 0.4488 0.5878 0.6292);fill-opacity:1;"/>
<path d="M251 258.341C251 283.558 230.558 304 205.341 304L121 304C93.3858 304 71 281.614 71 254V254C71 226.386 93.3858 204 121 204L251 204L251 258.341Z" fill="#A9DBEB" fill-opacity="0.53" style="fill:#A9DBEB;fill:color(display-p3 0.6627 0.8588 0.9216);fill-opacity:0.53;"/>
<path d="M302.883 407.188H290.961C290.283 407.188 289.634 406.918 289.155 406.439C288.675 405.96 288.406 405.31 288.406 404.633V324.586C288.406 323.908 288.675 323.259 289.155 322.78C289.634 322.3 290.283 322.031 290.961 322.031H302.883C303.56 322.031 304.21 322.3 304.689 322.78C305.168 323.259 305.438 323.908 305.438 324.586V404.633C305.438 405.31 305.168 405.96 304.689 406.439C304.21 406.918 303.56 407.188 302.883 407.188ZM336.094 349.281V338.211C336.094 337.533 335.825 336.884 335.345 336.405C334.866 335.925 334.217 335.656 333.539 335.656H311.398C310.721 335.656 310.071 335.925 309.592 336.405C309.113 336.884 308.844 337.533 308.844 338.211V349.281H336.094ZM308.844 393.562V404.633C308.844 405.31 309.113 405.96 309.592 406.439C310.071 406.918 310.721 407.188 311.398 407.188H333.539C334.217 407.188 334.866 406.918 335.345 406.439C335.825 405.96 336.094 405.31 336.094 404.633V393.562H308.844ZM308.844 356.094H336.094V386.75H308.844V356.094ZM357.383 407.188H342.055C341.377 407.188 340.727 406.918 340.248 406.439C339.769 405.96 339.5 405.31 339.5 404.633V314.367C339.5 313.69 339.769 313.04 340.248 312.561C340.727 312.082 341.377 311.812 342.055 311.812H357.383C358.06 311.812 358.71 312.082 359.189 312.561C359.668 313.04 359.938 313.69 359.938 314.367V404.633C359.938 405.31 359.668 405.96 359.189 406.439C358.71 406.918 358.06 407.188 357.383 407.188ZM363.557 326.438L369.943 404.746C369.972 405.089 370.069 405.423 370.23 405.728C370.391 406.033 370.612 406.302 370.879 406.519C371.147 406.736 371.455 406.897 371.787 406.992C372.118 407.086 372.465 407.113 372.807 407.07L388.169 405.154C388.823 405.073 389.42 404.741 389.836 404.229C390.251 403.718 390.452 403.065 390.398 402.408L383.994 324.418C383.966 324.079 383.87 323.749 383.713 323.448C383.556 323.147 383.34 322.88 383.078 322.663C382.817 322.446 382.514 322.283 382.189 322.185C381.864 322.086 381.522 322.054 381.184 322.089L365.828 323.688C365.166 323.759 364.557 324.087 364.133 324.601C363.708 325.115 363.502 325.774 363.557 326.438Z" fill="white" style="fill:white;fill-opacity:1;"/>
<path d="M203.606 630.45L235 630.45L235 629.04C233.829 602.72 216.96 580.865 203.606 567.705L202.903 567L203.606 566.295C216.96 552.9 233.829 531.28 235 504.96L235 503.55L203.606 503.55L203.606 473L149.486 473C136.366 473 123.246 473.47 112.469 474.41C102.073 475.271 92.3321 479.85 85.0212 487.313C77.7103 494.775 73.3163 504.624 72.64 515.065C71.7029 531.75 71 549.375 71 567C71 584.625 71.7029 602.25 72.8743 618.935C73.5505 629.376 77.9446 639.225 85.2555 646.688C92.5664 654.15 102.307 658.729 112.703 659.59C123.48 660.53 136.6 661 149.72 661L203.606 661L203.606 630.45ZM149.486 630.45C137.069 630.45 124.886 629.98 115.046 629.04C108.72 628.335 103.566 623.165 103.331 616.82C100.989 583.648 100.989 550.352 103.331 517.18C103.566 510.835 108.72 505.43 115.046 504.96C124.886 504.02 137.303 503.55 149.486 503.55L203.606 503.55C202.669 525.64 179.006 547.73 169.869 554.31L152.297 567L169.869 579.69C179.24 586.27 202.669 608.36 203.606 630.45L149.486 630.45Z" fill="white" style="fill:white;fill-opacity:1;"/>
<path d="M77.5078 177.938C77.5078 179.285 77.2969 180.521 76.875 181.646C76.4648 182.76 75.7969 183.715 74.8711 184.512C73.9453 185.32 72.7383 185.947 71.25 186.393C69.7734 186.838 67.9688 187.061 65.8359 187.061H57.4863C57.2402 187.061 56.959 187.078 56.6426 187.113C56.3262 187.148 56.0273 187.213 55.7461 187.307C55.4766 187.4 55.2422 187.535 55.043 187.711C54.8555 187.898 54.7617 188.139 54.7617 188.432C54.7617 188.666 54.8496 188.854 55.0254 188.994C55.2129 189.146 55.4121 189.287 55.623 189.416C55.834 189.545 56.0273 189.68 56.2031 189.82C56.3906 189.961 56.4844 190.143 56.4844 190.365C56.4844 190.623 56.4199 190.846 56.291 191.033C56.1738 191.232 56.0156 191.396 55.8164 191.525C55.6172 191.666 55.3945 191.771 55.1484 191.842C54.9141 191.912 54.6797 191.947 54.4453 191.947C53.9648 191.947 53.5137 191.865 53.0918 191.701C52.6699 191.537 52.3066 191.309 52.002 191.016C51.6973 190.734 51.457 190.4 51.2812 190.014C51.1055 189.639 51.0176 189.229 51.0176 188.783C51.0176 188.197 51.123 187.67 51.334 187.201C51.5449 186.732 51.832 186.334 52.1953 186.006C52.5703 185.689 53.0156 185.443 53.5312 185.268C54.0469 185.104 54.6035 185.021 55.2012 185.021H65.8359C66.3164 185.021 66.8496 184.986 67.4355 184.916C68.0332 184.857 68.6309 184.734 69.2285 184.547C69.8379 184.371 70.4297 184.119 71.0039 183.791C71.5781 183.463 72.082 183.035 72.5156 182.508C72.9609 181.98 73.3184 181.342 73.5879 180.592C73.8574 179.842 73.9922 178.951 73.9922 177.92C73.9922 177.252 73.8984 176.684 73.7109 176.215C73.5234 175.734 73.2715 175.348 72.9551 175.055C72.6504 174.75 72.2988 174.527 71.9004 174.387C71.502 174.246 71.0859 174.176 70.6523 174.176H68.7363V176.145C68.7363 178.594 68.0566 180.387 66.6973 181.523C65.3496 182.648 63.3516 183.211 60.7031 183.211C59.6953 183.211 58.7109 183.076 57.75 182.807C56.7891 182.537 55.9336 182.139 55.1836 181.611C54.4336 181.084 53.8301 180.434 53.373 179.66C52.916 178.875 52.6875 177.967 52.6875 176.936C52.6875 176.396 52.793 175.834 53.0039 175.248C53.2266 174.662 53.5664 174.123 54.0234 173.631C54.4922 173.139 55.084 172.734 55.7988 172.418C56.5254 172.09 57.3984 171.914 58.418 171.891V164.121H73.9922V166.406H68.7363V171.891H71.707C72.5859 171.891 73.3828 172.043 74.0977 172.348C74.8125 172.652 75.4219 173.08 75.9258 173.631C76.4297 174.17 76.8164 174.809 77.0859 175.547C77.3672 176.285 77.5078 177.082 77.5078 177.938ZM60.7031 171.891H65.2207V166.406H60.7031V171.891ZM58.9453 174.176C58.4648 174.176 57.9902 174.217 57.5215 174.299C57.0527 174.381 56.625 174.521 56.2383 174.721C55.8633 174.92 55.5586 175.189 55.3242 175.529C55.0898 175.869 54.9727 176.297 54.9727 176.812C54.9727 177.574 55.1367 178.213 55.4648 178.729C55.793 179.244 56.209 179.666 56.7129 179.994C57.2285 180.311 57.791 180.539 58.4004 180.68C59.0098 180.82 59.5957 180.891 60.1582 180.891C61.0371 180.891 61.793 180.768 62.4258 180.521C63.0586 180.275 63.5801 179.93 63.9902 179.484C64.4121 179.039 64.7227 178.5 64.9219 177.867C65.1211 177.223 65.2207 176.508 65.2207 175.723V174.176H58.9453ZM84.7148 164.121V180.715H90.7969V169.395C90.7969 168.422 90.9316 167.607 91.2012 166.951C91.4824 166.283 91.8516 165.75 92.3086 165.352C92.7656 164.941 93.2871 164.648 93.873 164.473C94.4707 164.285 95.0859 164.174 95.7188 164.139C95.4375 163.916 95.1738 163.646 94.9277 163.33C94.6934 163.002 94.4824 162.662 94.2949 162.311C94.1191 161.947 93.9785 161.584 93.873 161.221C93.7676 160.846 93.7148 160.488 93.7148 160.148C93.7148 159.516 93.8262 158.906 94.0488 158.32C94.2715 157.723 94.5762 157.166 94.9629 156.65C95.3613 156.135 95.8242 155.66 96.3516 155.227C96.8906 154.793 97.4648 154.424 98.0742 154.119C98.6836 153.814 99.3164 153.58 99.9727 153.416C100.641 153.24 101.303 153.152 101.959 153.152C103.014 153.152 103.922 153.287 104.684 153.557C105.457 153.826 106.107 154.184 106.635 154.629C107.174 155.074 107.602 155.584 107.918 156.158C108.246 156.732 108.498 157.324 108.674 157.934C108.861 158.543 108.984 159.146 109.043 159.744C109.102 160.342 109.131 160.887 109.131 161.379V183H106.846V161.941C106.846 161.332 106.781 160.717 106.652 160.096C106.535 159.463 106.307 158.895 105.967 158.391C105.627 157.887 105.152 157.477 104.543 157.16C103.945 156.832 103.172 156.668 102.223 156.668C101.426 156.668 100.658 156.773 99.9199 156.984C99.1934 157.184 98.5488 157.465 97.9863 157.828C97.4238 158.191 96.9727 158.625 96.6328 159.129C96.3047 159.621 96.1406 160.166 96.1406 160.764C96.1406 161.104 96.1992 161.449 96.3164 161.801C96.4336 162.141 96.5859 162.469 96.7734 162.785C96.9727 163.102 97.2012 163.4 97.459 163.682C97.7168 163.963 97.9863 164.197 98.2676 164.385C99.3105 164.654 100.236 165.111 101.045 165.756C101.854 166.389 102.527 167.145 103.066 168.023C103.617 168.891 104.033 169.84 104.314 170.871C104.596 171.902 104.736 172.945 104.736 174C104.736 175.477 104.502 176.777 104.033 177.902C103.564 179.016 102.932 179.953 102.135 180.715C101.338 181.465 100.406 182.033 99.3398 182.42C98.2852 182.807 97.1719 183 96 183H81.1992V164.121H84.7148ZM94.3125 180.715H95.2266C96.1055 180.715 96.9727 180.586 97.8281 180.328C98.6953 180.07 99.4688 179.672 100.148 179.133C100.84 178.582 101.396 177.885 101.818 177.041C102.24 176.197 102.451 175.184 102.451 174C102.451 173.133 102.328 172.266 102.082 171.398C101.848 170.52 101.502 169.729 101.045 169.025C100.6 168.322 100.055 167.754 99.4102 167.32C98.7773 166.875 98.0625 166.652 97.2656 166.652C96.3633 166.652 95.6426 166.898 95.1035 167.391C94.5762 167.883 94.3125 168.568 94.3125 169.447V180.715ZM116.707 164.121V180.715H122.859V169.359C122.859 168.328 123.012 167.473 123.316 166.793C123.621 166.113 124.02 165.58 124.512 165.193C125.016 164.795 125.584 164.52 126.217 164.367C126.85 164.203 127.5 164.121 128.168 164.121C129.035 164.121 129.85 164.268 130.611 164.561C131.385 164.854 132.094 165.252 132.738 165.756C133.395 166.26 133.98 166.852 134.496 167.531C135.023 168.199 135.469 168.92 135.832 169.693C136.195 170.467 136.471 171.27 136.658 172.102C136.857 172.934 136.957 173.754 136.957 174.562C136.957 175.957 136.711 177.182 136.219 178.236C135.727 179.279 135.064 180.158 134.232 180.873C133.4 181.576 132.439 182.109 131.35 182.473C130.271 182.824 129.146 183 127.975 183H126.709C126.709 183.293 126.756 183.574 126.85 183.844C126.943 184.125 127.084 184.371 127.271 184.582C127.459 184.793 127.688 184.963 127.957 185.092C128.238 185.221 128.561 185.285 128.924 185.285H131.438V187.412H126.445C126.105 187.412 125.807 187.43 125.549 187.465C125.291 187.5 125.068 187.576 124.881 187.693C124.705 187.822 124.559 188.01 124.441 188.256C124.324 188.502 124.236 188.836 124.178 189.258C124.037 190.266 123.744 191.068 123.299 191.666C122.865 192.264 122.35 192.721 121.752 193.037C121.154 193.354 120.516 193.559 119.836 193.652C119.168 193.758 118.529 193.811 117.92 193.811C117.229 193.811 116.508 193.711 115.758 193.512C115.02 193.312 114.34 193.002 113.719 192.58C113.109 192.17 112.605 191.643 112.207 190.998C111.809 190.365 111.609 189.615 111.609 188.748C111.609 188.15 111.703 187.6 111.891 187.096C112.078 186.592 112.354 186.158 112.717 185.795C113.092 185.443 113.555 185.162 114.105 184.951C114.656 184.752 115.301 184.652 116.039 184.652C116.402 184.652 116.777 184.705 117.164 184.811C117.551 184.916 117.896 185.08 118.201 185.303C118.506 185.525 118.758 185.807 118.957 186.146C119.156 186.498 119.256 186.92 119.256 187.412C119.256 187.635 119.203 187.863 119.098 188.098C118.992 188.332 118.84 188.543 118.641 188.73C118.453 188.918 118.225 189.07 117.955 189.188C117.697 189.316 117.41 189.381 117.094 189.381C116.777 189.381 116.514 189.346 116.303 189.275C116.092 189.205 115.91 189.105 115.758 188.977C115.605 188.848 115.471 188.695 115.354 188.52C115.236 188.344 115.119 188.15 115.002 187.939C114.979 187.893 114.938 187.828 114.879 187.746C114.832 187.676 114.779 187.641 114.721 187.641C114.17 187.641 113.895 188.068 113.895 188.924C113.895 189.311 113.982 189.65 114.158 189.943C114.346 190.248 114.598 190.506 114.914 190.717C115.242 190.928 115.629 191.086 116.074 191.191C116.52 191.297 117 191.35 117.516 191.35C117.902 191.35 118.271 191.314 118.623 191.244C118.986 191.186 119.309 191.062 119.59 190.875C119.871 190.699 120.094 190.441 120.258 190.102C120.434 189.773 120.521 189.34 120.521 188.801C120.521 188.191 120.639 187.682 120.873 187.271C121.107 186.861 121.412 186.521 121.787 186.252C122.174 185.994 122.607 185.789 123.088 185.637C123.58 185.496 124.072 185.379 124.564 185.285C124.377 185.215 124.184 185.115 123.984 184.986C123.785 184.869 123.598 184.717 123.422 184.529C123.258 184.342 123.123 184.119 123.018 183.861C122.912 183.615 122.859 183.328 122.859 183H113.191V164.121H116.707ZM126.375 180.715H127.641C128.52 180.715 129.375 180.598 130.207 180.363C131.051 180.117 131.801 179.742 132.457 179.238C133.125 178.734 133.658 178.096 134.057 177.322C134.467 176.549 134.672 175.629 134.672 174.562C134.672 173.965 134.607 173.35 134.479 172.717C134.361 172.084 134.186 171.475 133.951 170.889C133.729 170.291 133.453 169.734 133.125 169.219C132.797 168.691 132.434 168.234 132.035 167.848C131.637 167.461 131.203 167.156 130.734 166.934C130.277 166.699 129.797 166.582 129.293 166.582C128.812 166.582 128.391 166.688 128.027 166.898C127.664 167.098 127.359 167.367 127.113 167.707C126.867 168.035 126.68 168.416 126.551 168.85C126.434 169.271 126.375 169.705 126.375 170.15V180.715ZM121.893 157.494C121.893 157.107 121.969 156.744 122.121 156.404C122.273 156.053 122.479 155.748 122.736 155.49C123.006 155.232 123.311 155.027 123.65 154.875C124.002 154.723 124.365 154.646 124.74 154.646C125.115 154.646 125.473 154.723 125.812 154.875C126.164 155.027 126.469 155.232 126.727 155.49C126.984 155.748 127.189 156.053 127.342 156.404C127.494 156.744 127.57 157.107 127.57 157.494C127.57 157.881 127.494 158.25 127.342 158.602C127.189 158.941 126.984 159.24 126.727 159.498C126.469 159.756 126.164 159.961 125.812 160.113C125.473 160.254 125.115 160.324 124.74 160.324C124.365 160.324 124.002 160.254 123.65 160.113C123.311 159.961 123.006 159.756 122.736 159.498C122.479 159.24 122.273 158.941 122.121 158.602C121.969 158.25 121.893 157.881 121.893 157.494Z" fill="white" style="fill:white;fill-opacity:1;"/>
</g>
<defs>
<linearGradient id="paint0_linear_118_19" x1="219.5" y1="0" x2="219.5" y2="720" gradientUnits="userSpaceOnUse">
<stop stop-color="#DAEFF8" style="stop-color:#DAEFF8;stop-color:color(display-p3 0.8553 0.9392 0.9718);stop-opacity:1;"/>
<stop offset="1" stop-color="#E0EFF5" style="stop-color:#E0EFF5;stop-color:color(display-p3 0.8784 0.9373 0.9608);stop-opacity:1;"/>
</linearGradient>
<clipPath id="clip0_118_19">
<rect width="439" height="720" fill="white" style="fill:white;fill-opacity:1;"/>
</clipPath>
</defs>
</svg>
